
<?xml version="1.0" standalone="no"?>
<!DOCTYPE svg PUBLIC "-//W3C//DTD SVG 20010904//EN"
 "http://www.w3.org/TR/2001/REC-SVG-20010904/DTD/svg10.dtd">
<svg version="1.0" xmlns="http://www.w3.org/2000/svg"
 width="1212.000000pt" height="1199.000000pt" viewBox="0 0 1212.000000 1199.000000"
 preserveAspectRatio="xMidYMid meet">
<metadata>
Created by potrace 1.16, written by Peter Selinger 2001-2019
</metadata>
<g transform="translate(0.000000,1199.000000) scale(0.100000,-0.100000)"
fill="#e60000" stroke="none">
<path d="M1120 11855 c-447 -71 -805 -419 -897 -871 -17 -85 -18 -305 -18
-5009 l0 -4920 22 -91 c103 -433 420 -745 853 -842 70 -16 428 -17 5005 -17
4726 0 4934 1 5015 18 170 37 364 132 487 240 182 160 293 340 354 573 l24 89
0 4960 0 4960 -24 90 c-117 443 -471 762 -915 824 -54 8 -1532 11 -4949 10
-4027 -1 -4887 -3 -4957 -14z m5565 -885 c1012 -68 1964 -419 2760 -1019 359
-271 727 -639 993 -993 39 -53 72 -101 72 -107 0 -8 -214 -11 -750 -11 l-750
0 -95 82 c-536 460 -1207 774 -1905 892 -264 45 -349 51 -695 51 -282 -1 -354
-4 -493 -23 -792 -107 -1510 -425 -2083 -922 l-89 -77 -397 -6 c-512 -9 -1073
-9 -1073 0 0 11 167 229 273 356 126 151 394 421 547 551 508 434 1087 762
1715 971 446 148 846 224 1365 259 113 7 469 5 605 -4z m-72 -4911 c-9 -9
-1279 -659 -1287 -659 -3 0 -6 820 -6 1823 l0 1822 648 321 647 320 3 -1810
c1 -995 -1 -1813 -5 -1817z m-4141 2117 l424 -269 -92 -186 c-377 -759 -485
-1599 -313 -2425 293 -1411 1397 -2552 2827 -2922 155 -40 349 -77 524 -100
165 -22 626 -30 811 -15 1066 88 2040 590 2717 1398 45 54 86 97 91 96 5 -2
152 -94 326 -206 175 -112 391 -249 480 -306 l162 -104 -62 -80 c-164 -212
-498 -558 -712 -736 -717 -597 -1589 -992 -2496 -1132 -459 -70 -1009 -79
-1449 -23 -1719 218 -3200 1267 -3936 2789 -631 1306 -643 2798 -34 4128 56
121 189 375 212 404 7 9 20 5 52 -15 24 -15 234 -148 468 -296z m4476 -2992
c172 -344 312 -627 310 -629 -9 -8 -1211 -606 -1213 -603 -5 6 -625 1248 -625
1253 0 6 1191 604 1205 604 6 1 151 -281 323 -625z"/>
</g>
</svg>
