<?xml version="1.0" standalone="no"?>
<!DOCTYPE svg PUBLIC "-//W3C//DTD SVG 20010904//EN"
 "http://www.w3.org/TR/2001/REC-SVG-20010904/DTD/svg10.dtd">
<svg version="1.0" xmlns="http://www.w3.org/2000/svg"
 width="900.000000pt" height="897.000000pt" viewBox="0 0 900.000000 897.000000"
 preserveAspectRatio="xMidYMid meet">
<metadata>
Created by potrace 1.10, written by Peter Selinger 2001-2011
</metadata>
<g transform="translate(0.000000,897.000000) scale(0.100000,-0.100000)"
fill="#ea0d0d" stroke="none">
<path d="M4255 7150 c-33 -5 -96 -14 -140 -19 -150 -18 -373 -70 -463 -107
-18 -8 -39 -14 -47 -14 -8 0 -31 -7 -52 -16 -21 -9 -51 -22 -68 -29 -119 -48
-309 -144 -390 -196 -16 -10 -37 -22 -45 -26 -8 -3 -31 -19 -51 -35 -20 -15
-40 -28 -44 -28 -7 0 -92 -65 -136 -103 -9 -7 -47 -40 -85 -72 -38 -32 -107
-97 -154 -144 -88 -89 -298 -334 -308 -361 -3 -8 -17 -31 -32 -50 -15 -19 -30
-42 -33 -50 -4 -8 -16 -28 -26 -45 -38 -59 -131 -239 -166 -320 -7 -16 -20
-46 -28 -65 -8 -19 -22 -52 -31 -73 -9 -21 -16 -44 -16 -52 0 -8 -6 -29 -14
-47 -24 -59 -66 -217 -90 -343 -69 -368 -61 -755 26 -1115 6 -25 14 -61 19
-80 21 -89 68 -230 107 -320 8 -19 20 -48 27 -65 19 -45 110 -225 134 -265 11
-19 24 -42 28 -50 11 -24 154 -234 167 -245 7 -5 34 -39 61 -75 62 -81 266
-290 341 -350 124 -98 172 -134 239 -179 60 -40 100 -65 210 -127 65 -38 265
-132 305 -145 14 -4 50 -17 80 -29 84 -32 133 -47 350 -100 25 -6 77 -15 115
-20 39 -5 94 -14 124 -20 29 -5 171 -10 315 -10 262 0 349 7 546 46 143 29
308 77 408 120 18 8 37 14 42 14 15 0 236 104 305 144 179 102 249 149 391
262 184 146 364 336 513 544 100 139 143 211 224 375 37 76 49 101 81 178 7
17 21 49 30 70 9 21 16 44 16 52 0 8 6 29 14 47 24 59 66 217 90 343 69 369
61 754 -26 1115 -6 25 -14 61 -19 80 -20 87 -70 236 -106 320 -8 19 -21 49
-28 65 -35 81 -128 261 -166 320 -10 17 -22 37 -26 45 -3 8 -19 31 -35 51 -15
20 -28 40 -28 44 0 7 -79 113 -116 155 -12 14 -53 61 -91 105 -87 100 -221
227 -321 305 -43 33 -93 73 -112 89 -19 17 -39 31 -44 31 -4 0 -25 13 -45 28
-20 16 -43 32 -51 35 -8 4 -28 16 -45 26 -61 39 -245 135 -320 166 -16 7 -46
19 -65 27 -90 39 -231 86 -320 107 -19 5 -55 13 -80 19 -65 16 -192 39 -290
53 -107 14 -475 20 -555 9z m523 -425 c152 -22 289 -53 424 -96 58 -19 63 -21
158 -59 67 -27 224 -104 265 -131 17 -10 39 -23 50 -29 29 -15 56 -32 96 -62
20 -16 41 -28 45 -28 5 0 27 -16 49 -36 22 -19 58 -49 80 -65 57 -42 273 -262
331 -338 76 -98 123 -165 131 -181 4 -8 19 -33 33 -55 14 -22 30 -49 37 -60
23 -38 101 -200 123 -255 12 -30 26 -66 32 -80 47 -118 90 -286 123 -485 20
-122 20 -483 0 -614 -29 -187 -76 -372 -123 -491 -44 -111 -60 -146 -99 -225
-24 -49 -53 -103 -64 -120 -10 -16 -22 -37 -26 -45 -31 -65 -192 -277 -283
-372 -85 -89 -94 -91 -110 -27 -10 42 -28 92 -50 144 -9 22 -23 56 -30 75 -52
136 -179 243 -365 305 -73 25 -114 40 -205 75 -30 12 -68 25 -85 30 -16 4 -43
13 -59 19 -38 15 -386 26 -405 12 -15 -10 -11 -26 19 -71 14 -22 95 -162 103
-180 4 -8 17 -31 28 -50 12 -19 35 -59 51 -89 l29 -53 -28 5 c-91 19 -142 31
-258 62 -211 55 -187 57 -231 -12 -22 -32 -42 -66 -46 -75 -4 -10 -17 -18 -28
-18 -11 0 -24 8 -28 18 -4 9 -24 43 -46 75 -44 69 -20 67 -231 12 -76 -20
-210 -52 -258 -62 l-28 -5 29 53 c16 30 39 70 51 89 11 19 24 42 28 50 4 8 26
48 50 88 24 40 43 75 43 78 0 3 10 18 21 34 13 17 19 35 15 46 -6 16 -22 17
-195 11 -104 -4 -201 -12 -217 -18 -16 -6 -42 -15 -59 -19 -29 -8 -49 -15
-165 -60 -30 -12 -89 -33 -130 -46 -41 -14 -79 -29 -84 -35 -6 -5 -16 -9 -22
-9 -23 0 -108 -62 -159 -116 -48 -50 -97 -134 -128 -219 -30 -82 -39 -111 -47
-144 -5 -18 -13 -38 -18 -43 -18 -18 -76 43 -275 286 -29 36 -72 102 -97 151
-6 11 -19 34 -29 50 -37 58 -133 259 -160 335 -107 304 -141 500 -141 807 0
306 33 494 141 803 18 50 45 112 96 215 46 95 52 104 96 173 15 24 27 45 27
48 0 4 47 70 78 109 4 6 29 39 56 75 66 87 276 298 354 356 34 25 68 51 75 58
23 21 134 97 172 116 11 6 34 19 50 29 41 27 198 104 265 131 95 38 100 40
158 59 129 41 271 74 412 95 132 19 454 20 588 1z m-147 -3834 c71 -71 129
-134 129 -141 0 -7 -38 -50 -85 -97 -47 -47 -88 -95 -91 -108 -3 -13 2 -49 11
-81 9 -33 24 -84 32 -114 8 -30 22 -79 30 -108 9 -28 13 -55 9 -60 -10 -9
-342 -9 -352 0 -4 5 0 32 9 60 8 29 22 78 30 108 8 30 23 81 32 114 9 32 14
68 11 81 -3 13 -44 61 -90 107 -46 46 -85 91 -87 99 -2 11 50 69 143 156 31
30 81 79 96 96 9 9 23 17 30 17 8 0 72 -58 143 -129z m-561 -385 c5 -13 5 -37
1 -53 l-7 -28 -309 -3 c-219 -2 -312 1 -321 9 -17 14 -18 71 -2 87 9 9 94 12
320 12 l308 0 10 -24z"/>
<path d="M4415 6241 c-11 -4 -57 -9 -102 -10 -57 -1 -104 -10 -155 -27 -40
-14 -91 -29 -113 -33 -104 -20 -301 -140 -427 -261 -104 -99 -132 -140 -124
-181 6 -30 3 -37 -61 -144 -7 -11 -17 -30 -23 -43 -5 -13 -21 -46 -34 -75 -39
-82 -116 -345 -116 -396 0 -11 -10 -26 -22 -32 -13 -6 -33 -21 -45 -32 -23
-20 -23 -25 -23 -255 l0 -234 31 -29 c27 -25 39 -29 90 -29 54 0 59 -2 59 -21
0 -28 35 -85 58 -94 9 -4 52 -10 95 -14 l79 -6 15 -40 c8 -22 17 -49 20 -60 8
-31 90 -208 116 -250 88 -143 224 -282 350 -357 38 -23 67 -47 67 -56 0 -9 20
-34 44 -57 24 -22 97 -89 161 -150 65 -60 126 -110 135 -110 9 0 70 50 135
110 64 61 137 128 161 149 24 21 44 47 44 56 0 11 20 28 53 45 65 34 139 89
196 146 44 44 151 181 164 209 4 8 16 29 27 45 11 17 24 40 30 53 5 13 20 46
33 75 29 65 47 115 54 147 9 42 20 47 106 53 78 5 83 7 110 38 15 19 27 45 27
61 0 27 2 28 54 28 32 0 60 5 68 13 7 8 23 19 36 26 22 12 22 14 22 250 l0
239 -30 25 c-16 14 -34 27 -40 29 -5 1 -20 44 -31 93 -24 103 -73 266 -94 310
-47 101 -58 122 -107 207 -21 35 -26 54 -22 77 8 41 -20 82 -124 181 -129 124
-292 223 -444 269 -128 39 -145 43 -268 56 -139 16 -205 18 -235 6z m240 -211
c246 -33 457 -143 620 -324 52 -57 75 -76 98 -78 25 -2 37 -13 67 -63 46 -76
99 -203 144 -344 19 -58 11 -86 -19 -61 -9 7 -45 14 -80 16 -36 1 -69 5 -74 8
-5 3 -12 38 -16 77 -7 69 -29 134 -59 172 -20 26 -60 19 -64 -10 -2 -13 -10
-23 -19 -23 -11 0 -14 6 -9 23 28 94 29 133 7 197 -29 82 -99 190 -124 190
-11 0 -23 -11 -29 -28 -12 -32 -71 -77 -87 -67 -6 3 -11 18 -11 33 -1 31 -34
77 -50 67 -5 -3 -10 -18 -10 -33 0 -36 -8 -46 -55 -71 -38 -20 -53 -21 -375
-21 -278 -1 -351 -4 -430 -19 -123 -23 -172 -48 -191 -99 -7 -19 -12 -21 -28
-12 -61 32 -142 -8 -203 -101 -47 -72 -64 -121 -73 -202 -4 -37 -11 -70 -16
-73 -5 -3 -38 -7 -74 -8 -35 -2 -71 -9 -80 -16 -28 -23 -36 2 -19 60 33 112
91 256 127 315 7 10 22 36 35 57 17 30 28 38 51 38 22 0 42 15 97 76 133 148
283 240 484 298 119 34 319 45 465 26z m368 -1022 c96 -95 146 -239 167 -478
16 -191 -11 -375 -70 -472 -11 -18 -24 -44 -30 -56 -18 -42 -202 -218 -265
-253 -237 -133 -507 -118 -720 41 -95 71 -215 201 -215 234 0 18 25 22 35 6 6
-10 44 -29 115 -57 60 -24 183 -53 227 -53 35 0 46 -5 65 -30 l22 -30 135 0
c125 0 136 2 158 22 19 18 23 32 23 84 0 77 -5 91 -41 109 -40 21 -229 21
-269 0 -17 -9 -30 -19 -30 -23 0 -45 -175 -23 -305 39 -83 39 -166 106 -225
179 -20 26 -29 51 -35 97 -7 60 -6 62 28 100 107 119 187 317 187 463 l0 72
28 -5 c15 -3 70 -18 122 -33 89 -25 108 -27 305 -28 177 -1 220 2 275 18 68
19 206 81 215 97 14 21 47 6 98 -43z"/>
</g>
</svg>
